<svg width="192" height="187" viewBox="0 0 192 187" fill="none" xmlns="http://www.w3.org/2000/svg">
<path d="M64.0969 150.364C64.0969 151.134 63.2116 151.75 62.0954 151.75C60.8253 151.865 59.94 151.249 59.94 150.364C59.94 149.594 60.8253 148.978 61.9415 148.978C63.0962 148.863 64.0969 149.479 64.0969 150.364ZM52.1266 148.632C51.8572 149.402 52.627 150.287 53.7817 150.518C54.7824 150.903 55.9371 150.518 56.168 149.748C56.399 148.978 55.6677 148.093 54.513 147.747C53.5122 147.477 52.396 147.862 52.1266 148.632ZM69.1391 147.978C68.0229 148.247 67.2531 148.978 67.3685 149.864C67.484 150.633 68.4847 151.134 69.6394 150.864C70.7556 150.595 71.5254 149.864 71.41 149.094C71.2945 148.362 70.2553 147.862 69.1391 147.978ZM94.4653 0.484863C41.08 0.484863 0.242432 41.0146 0.242432 94.3998C0.242432 137.085 27.1083 173.612 65.4825 186.467C70.4092 187.353 72.1413 184.312 72.1413 181.81C72.1413 179.424 72.0258 166.26 72.0258 158.177C72.0258 158.177 45.083 163.951 39.425 146.707C39.425 146.707 35.0372 135.507 28.7248 132.62C28.7248 132.62 19.9107 126.577 29.3407 126.693C29.3407 126.693 38.9246 127.463 44.1977 136.623C52.627 151.48 66.7527 147.208 72.2567 144.667C73.142 138.509 75.6438 134.237 78.4151 131.696C56.8993 129.31 35.1911 126.192 35.1911 89.1652C35.1911 78.5805 38.1163 73.269 44.2747 66.4948C43.274 63.9929 40.0023 53.6777 45.2754 40.3602C53.3198 37.8584 71.8333 50.7525 71.8333 50.7525C79.5313 48.597 87.8066 47.4808 96.0049 47.4808C104.203 47.4808 112.478 48.597 120.176 50.7525C120.176 50.7525 138.69 37.8199 146.734 40.3602C152.007 53.7162 148.736 63.9929 147.735 66.4948C153.893 73.3074 157.665 78.619 157.665 89.1652C157.665 126.308 134.995 129.272 113.479 131.696C117.02 134.737 120.022 140.511 120.022 149.556C120.022 162.527 119.907 178.577 119.907 181.733C119.907 184.235 121.678 187.276 126.566 186.39C165.055 173.612 191.152 137.085 191.152 94.3998C191.152 41.0146 147.851 0.484863 94.4653 0.484863V0.484863ZM37.6545 133.236C37.1541 133.621 37.2696 134.506 37.9239 135.237C38.5397 135.853 39.425 136.123 39.9253 135.622C40.4257 135.237 40.3102 134.352 39.6559 133.621C39.0401 133.005 38.1548 132.736 37.6545 133.236ZM33.4976 130.118C33.2281 130.619 33.613 131.235 34.3828 131.619C34.9987 132.004 35.7685 131.889 36.0379 131.35C36.3073 130.85 35.9224 130.234 35.1526 129.849C34.3828 129.618 33.767 129.733 33.4976 130.118ZM45.9682 143.821C45.3524 144.321 45.5833 145.476 46.4686 146.207C47.3539 147.092 48.4701 147.208 48.9704 146.592C49.4708 146.092 49.2399 144.937 48.4701 144.206C47.6233 143.32 46.4686 143.205 45.9682 143.821ZM41.5804 138.163C40.9646 138.548 40.9646 139.548 41.5804 140.434C42.1962 141.319 43.2355 141.704 43.7358 141.319C44.3517 140.818 44.3517 139.818 43.7358 138.932C43.197 138.047 42.1962 137.662 41.5804 138.163Z" fill="white"/>
</svg>
