<svg width="191" height="191" viewBox="0 0 191 191" fill="none" xmlns="http://www.w3.org/2000/svg">
<path d="M177.273 0H13.5937C6.09375 0 0 6.17898 0 13.7642V177.145C0 184.73 6.09375 190.909 13.5937 190.909H177.273C184.773 190.909 190.909 184.73 190.909 177.145V13.7642C190.909 6.17898 184.773 0 177.273 0V0ZM57.6989 163.636H29.4034V72.5284H57.7415V163.636H57.6989ZM43.5511 60.0852C34.4744 60.0852 27.1449 52.7131 27.1449 43.679C27.1449 34.6449 34.4744 27.2727 43.5511 27.2727C52.5852 27.2727 59.9574 34.6449 59.9574 43.679C59.9574 52.7557 52.6278 60.0852 43.5511 60.0852V60.0852ZM163.764 163.636H135.469V119.318C135.469 108.75 135.256 95.1562 120.767 95.1562C106.023 95.1562 103.764 106.662 103.764 118.551V163.636H75.4687V72.5284H102.614V84.9716H102.997C106.79 77.8125 116.037 70.2699 129.801 70.2699C158.437 70.2699 163.764 89.1477 163.764 113.693V163.636Z" fill="white"/>
</svg>
