<svg width="191" height="191" viewBox="0 0 191 191" fill="none" xmlns="http://www.w3.org/2000/svg">
<path d="M161.08 119.318H149.148C147.565 119.318 146.048 119.947 144.929 121.066C143.81 122.184 143.182 123.702 143.182 125.284V167.045H23.8636V47.7273H77.5568C79.1391 47.7273 80.6565 47.0987 81.7754 45.9799C82.8942 44.8611 83.5227 43.3436 83.5227 41.7614V29.8295C83.5227 28.2473 82.8942 26.7298 81.7754 25.611C80.6565 24.4922 79.1391 23.8636 77.5568 23.8636H17.8977C13.151 23.8636 8.5986 25.7493 5.24212 29.1058C1.88565 32.4622 0 37.0146 0 41.7614L0 173.011C0 177.758 1.88565 182.31 5.24212 185.667C8.5986 189.023 13.151 190.909 17.8977 190.909H149.148C153.894 190.909 158.447 189.023 161.803 185.667C165.16 182.31 167.045 177.758 167.045 173.011V125.284C167.045 123.702 166.417 122.184 165.298 121.066C164.179 119.947 162.662 119.318 161.08 119.318ZM181.96 0H134.233C126.265 0 122.282 9.66104 127.894 15.2876L141.217 28.6103L50.3374 119.456C49.5031 120.288 48.8411 121.275 48.3895 122.363C47.9378 123.451 47.7053 124.617 47.7053 125.795C47.7053 126.973 47.9378 128.139 48.3895 129.227C48.8411 130.314 49.5031 131.302 50.3374 132.134L58.7903 140.572C59.6217 141.406 60.6096 142.068 61.6973 142.52C62.7851 142.971 63.9513 143.204 65.1291 143.204C66.3069 143.204 67.4731 142.971 68.5608 142.52C69.6486 142.068 70.6365 141.406 71.4679 140.572L162.303 49.7109L175.621 63.0149C181.214 68.608 190.909 64.6928 190.909 56.6761V8.94886C190.909 6.57548 189.966 4.2993 188.288 2.62106C186.61 0.942824 184.334 0 181.96 0V0Z" fill="white"/>
</svg>
