<svg width="191" height="156" viewBox="0 0 191 156" fill="none" xmlns="http://www.w3.org/2000/svg">
<path d="M171.286 38.6421C171.407 40.3379 171.407 42.0341 171.407 43.7299C171.407 95.4545 132.038 155.053 60.0833 155.053C37.9154 155.053 17.3225 148.633 0 137.489C3.14964 137.852 6.17772 137.973 9.44855 137.973C27.7397 137.973 44.5778 131.796 58.0239 121.257C40.8226 120.893 26.4075 109.628 21.4408 94.1223C23.8637 94.4855 26.2863 94.7278 28.8304 94.7278C32.3432 94.7278 35.8564 94.2431 39.1268 93.3955C21.1988 89.7612 7.75236 74.0137 7.75236 54.9955V54.5111C12.961 57.4184 19.0183 59.2354 25.438 59.4774C14.8992 52.4514 7.99472 40.4591 7.99472 26.8918C7.99472 19.6238 9.93253 12.9614 13.3245 7.14681C32.5852 30.8894 61.5367 46.3944 94.0007 48.0906C93.3952 45.1834 93.0316 42.1553 93.0316 39.1268C93.0316 17.5645 110.475 0 132.158 0C143.424 0 153.599 4.72427 160.746 12.3558C169.589 10.66 178.069 7.38918 185.579 2.90727C182.672 11.9926 176.494 19.6242 168.378 24.4693C176.252 23.6217 183.883 21.4408 190.909 18.4127C185.58 26.1651 178.917 33.0695 171.286 38.6421V38.6421Z" fill="white"/>
</svg>
